<svg width="125" height="35" viewBox="0 0 125 35" fill="none" xmlns="http://www.w3.org/2000/svg">
<path fill-rule="evenodd" clip-rule="evenodd" d="M41.0281 0.905029H41.7141V35H41.0281V0.905029Z" fill="#FF4E00"/>
<path fill-rule="evenodd" clip-rule="evenodd" d="M37.3391 14.9959C36.5114 14.9959 35.8238 16.2975 35.8238 17.8822C35.8238 19.4668 36.5114 20.7685 37.3391 20.7685C38.1683 20.7685 38.8543 19.4668 38.8543 17.8822C38.8543 16.2975 38.1683 14.9959 37.368 14.9959H37.3391ZM23.159 32.9916V2.91347L24.473 2.74397L26.7902 2.46094L40.0266 0.876282V34.8305L26.7902 33.3594L24.473 33.1035L23.159 32.9628V32.9916Z" fill="#FF4E00"/>
<path fill-rule="evenodd" clip-rule="evenodd" d="M26.8175 2.48972L24.5019 2.74397V1.78294H2.31557V33.8966H0V0H26.8175V2.48972Z" fill="#FF4E00"/>
<path fill-rule="evenodd" clip-rule="evenodd" d="M41.0281 0.905029H42.8574V35H41.0281V0.905029Z" fill="#FF4E00"/>
<path d="M53.7131 18.7696C52.8452 18.7696 52.0787 18.5921 51.4137 18.2387C50.7518 17.8853 50.2366 17.3912 49.8678 16.7548C49.5023 16.1152 49.3203 15.3828 49.3203 14.5545V11.0046C49.3203 10.1859 49.5023 9.46153 49.8678 8.8299C50.2366 8.19988 50.7518 7.70897 51.4137 7.35878C52.0787 7.01018 52.8452 6.83429 53.7131 6.83429C54.5923 6.83429 55.3637 7.01018 56.0255 7.35878C56.6905 7.70897 57.2058 8.19988 57.5713 8.8299C57.9401 9.46153 58.1253 10.1859 58.1253 11.0046V14.5545C58.1253 15.3828 57.9401 16.1184 57.5713 16.7612C57.2058 17.4008 56.6905 17.8965 56.0255 18.2451C55.3637 18.5937 54.5923 18.7696 53.7131 18.7696ZM53.7131 16.7612C54.3266 16.7612 54.8226 16.5677 55.201 16.1791C55.5778 15.7922 55.7678 15.2773 55.7678 14.6377V10.9854C55.7678 10.3426 55.5811 9.82451 55.2075 9.43115C54.8339 9.03938 54.3347 8.8427 53.7131 8.8427C53.098 8.8427 52.6053 9.03938 52.2317 9.43115C51.8613 9.82451 51.6778 10.3426 51.6778 10.9854V14.6377C51.6778 15.2773 51.8613 15.7922 52.2317 16.1791C52.6053 16.5677 53.098 16.7612 53.7131 16.7612Z" fill="#140455"/>
<path d="M67.4637 12.3606C67.6521 12.8947 67.7471 13.5599 67.7471 14.3562C67.7471 15.1717 67.6408 15.8561 67.4315 16.4094C67.1867 17.1178 66.7826 17.6822 66.2206 18.1044C65.657 18.5233 64.9968 18.7312 64.2367 18.7312C63.4155 18.7312 62.7826 18.461 62.3366 17.9189C62.3141 17.8853 62.2883 17.8741 62.2593 17.8869C62.2335 17.8997 62.2207 17.9285 62.2207 17.9701V21.3856C62.2207 21.5727 62.1257 21.6671 61.9373 21.6671H60.1466C59.9566 21.6671 59.8632 21.5727 59.8632 21.3856V10.3394C59.8632 10.1523 59.9566 10.058 60.1466 10.058H61.9373C62.1257 10.058 62.2207 10.1523 62.2207 10.3394V10.7871C62.2207 10.8303 62.2335 10.8559 62.2593 10.8639C62.2883 10.8687 62.3141 10.8543 62.3366 10.8191C62.7907 10.2227 63.4251 9.92365 64.2367 9.92365C64.9968 9.92365 65.6683 10.1475 66.2528 10.5952C66.8357 11.043 67.2399 11.6314 67.4637 12.3606ZM64.8744 16.0448C65.1401 15.6019 65.2737 15.0214 65.2737 14.305C65.2737 13.6526 65.1578 13.1121 64.9259 12.6804C64.6586 12.2039 64.2512 11.964 63.7021 11.964C63.2126 11.964 62.8342 12.2039 62.5685 12.6804C62.3447 13.0898 62.2335 13.6366 62.2335 14.3178C62.2335 15.039 62.3511 15.6099 62.5878 16.032C62.8664 16.4638 63.2384 16.678 63.7021 16.678C64.2174 16.678 64.6071 16.467 64.8744 16.0448Z" fill="#140455"/>
<path d="M73.2605 16.742C73.9948 16.7084 74.5568 16.4542 74.9481 15.9809C75.0157 15.9041 75.0898 15.8657 75.1671 15.8657C75.2315 15.8657 75.2911 15.8945 75.3475 15.9489L76.3007 16.8571C76.3684 16.9259 76.4038 16.9915 76.4038 17.0554C76.4038 17.137 76.3796 17.2025 76.3329 17.2537C75.9674 17.711 75.4972 18.0692 74.9223 18.3283C74.3507 18.5873 73.7243 18.7184 73.0415 18.7184C72.019 18.7184 71.1704 18.4594 70.4973 17.9381C69.8226 17.4184 69.3669 16.7036 69.1318 15.7954C68.9981 15.3093 68.9321 14.796 68.9321 14.2539C68.9321 13.6143 68.9933 13.0738 69.1189 12.6293C69.3411 11.8105 69.7904 11.1517 70.4651 10.6528C71.1382 10.1539 71.9369 9.90448 72.8612 9.90448C73.9513 9.90448 74.8161 10.2275 75.457 10.8703C76.0962 11.5099 76.5133 12.4118 76.7065 13.5759C76.7484 13.9389 76.7806 14.3418 76.8031 14.7848C76.8031 14.9735 76.7081 15.0662 76.5197 15.0662H71.3926C71.3234 15.0662 71.2896 15.1014 71.2896 15.1686C71.3234 15.3988 71.362 15.5699 71.4055 15.6802C71.5166 16.0224 71.7356 16.2847 72.0625 16.467C72.3926 16.6509 72.792 16.742 73.2605 16.742ZM72.829 11.9321C72.4715 11.9321 72.1736 12.0184 71.9337 12.1879C71.6921 12.359 71.5279 12.6005 71.4377 12.9107C71.3814 13.1202 71.3491 13.2593 71.3411 13.3264C71.3282 13.3904 71.3556 13.4224 71.4248 13.4224H74.2654C74.3201 13.4224 74.3491 13.4016 74.3491 13.3584C74.3491 13.2353 74.3249 13.1074 74.2782 12.9747C74.1784 12.6548 74.0077 12.4022 73.7629 12.2135C73.5182 12.0264 73.2058 11.9321 72.829 11.9321Z" fill="#140455"/>
<path d="M82.7345 9.92365C83.6266 9.92365 84.3464 10.1955 84.8923 10.736C85.4365 11.278 85.7103 12.0136 85.7103 12.9427V18.3027C85.7103 18.4914 85.6153 18.5841 85.4269 18.5841H83.6362C83.4462 18.5841 83.3528 18.4914 83.3528 18.3027V13.4224C83.3528 12.9842 83.2305 12.626 82.9857 12.3478C82.7409 12.0712 82.4124 11.9321 82.0002 11.9321C81.588 11.9321 81.253 12.0712 80.9954 12.3478C80.741 12.626 80.6154 12.9842 80.6154 13.4224V18.3027C80.6154 18.4914 80.5204 18.5841 80.332 18.5841H78.5413C78.3513 18.5841 78.2579 18.4914 78.2579 18.3027V10.3394C78.2579 10.1523 78.3513 10.058 78.5413 10.058H80.332C80.5204 10.058 80.6154 10.1523 80.6154 10.3394V10.7999C80.6154 10.8479 80.625 10.8767 80.6476 10.8895C80.6685 10.8991 80.6894 10.8863 80.712 10.8511C81.1709 10.2339 81.8456 9.92365 82.7345 9.92365Z" fill="#140455"/>
<path d="M91.1701 18.5841C90.9801 18.5841 90.8867 18.4914 90.8867 18.3027V7.25006C90.8867 7.06297 90.9801 6.96863 91.1701 6.96863H95.2667C96.0992 6.96863 96.8318 7.11574 97.4631 7.40997C98.0943 7.70419 98.5806 8.11834 98.9252 8.65083C99.2682 9.18011 99.4405 9.79255 99.4405 10.4865V15.0662C99.4405 15.7618 99.2682 16.3758 98.9252 16.9083C98.5806 17.4424 98.0943 17.855 97.4631 18.1492C96.8318 18.4402 96.0992 18.5841 95.2667 18.5841H91.1701ZM93.2442 16.4798C93.2442 16.5437 93.278 16.5757 93.3472 16.5757H95.3504C95.8609 16.5757 96.2747 16.4062 96.5935 16.064C96.9107 15.7186 97.0766 15.2581 97.0895 14.6824V10.8703C97.0895 10.2947 96.9301 9.83732 96.6128 9.49513C96.294 9.14973 95.8673 8.97703 95.3311 8.97703H93.3472C93.278 8.97703 93.2442 9.01221 93.2442 9.07937V16.4798Z" fill="#140455"/>
<path d="M104.871 18.7184C103.925 18.7184 103.119 18.4754 102.449 17.9893C101.782 17.4999 101.325 16.8347 101.077 15.9936C100.922 15.4739 100.845 14.9111 100.845 14.305C100.845 13.6318 100.929 13.045 101.096 12.5461C101.354 11.7274 101.813 11.0862 102.475 10.6208C103.135 10.1571 103.94 9.92365 104.89 9.92365C105.805 9.92365 106.586 10.1571 107.234 10.6208C107.887 11.0862 108.342 11.721 108.6 12.5269C108.767 13.0386 108.851 13.6206 108.851 14.2731C108.851 14.8455 108.777 15.4036 108.632 15.9489C108.375 16.8108 107.914 17.4887 107.254 17.9829C106.592 18.4738 105.798 18.7184 104.871 18.7184ZM104.871 16.71C105.226 16.71 105.534 16.5997 105.792 16.3774C106.049 16.1567 106.233 15.8513 106.346 15.4628C106.431 15.1653 106.474 14.7784 106.474 14.305C106.474 13.8413 106.431 13.4479 106.346 13.1281C106.233 12.7492 106.049 12.4549 105.792 12.2455C105.534 12.0376 105.215 11.9321 104.838 11.9321C104.473 11.9321 104.162 12.0376 103.904 12.2455C103.647 12.4549 103.462 12.7492 103.35 13.1281C103.264 13.4479 103.222 13.8413 103.222 14.305C103.222 14.7576 103.264 15.1429 103.35 15.4628C103.462 15.8513 103.648 16.1567 103.911 16.3774C104.172 16.5997 104.492 16.71 104.871 16.71Z" fill="#140455"/>
<path d="M114.177 18.7184C113.231 18.7184 112.425 18.4754 111.755 17.9893C111.088 17.4999 110.631 16.8347 110.383 15.9936C110.228 15.4739 110.151 14.9111 110.151 14.305C110.151 13.6318 110.235 13.045 110.402 12.5461C110.66 11.7274 111.119 11.0862 111.781 10.6208C112.441 10.1571 113.246 9.92365 114.196 9.92365C115.111 9.92365 115.892 10.1571 116.541 10.6208C117.193 11.0862 117.648 11.721 117.906 12.5269C118.073 13.0386 118.157 13.6206 118.157 14.2731C118.157 14.8455 118.083 15.4036 117.938 15.9489C117.681 16.8108 117.22 17.4887 116.56 17.9829C115.898 18.4738 115.104 18.7184 114.177 18.7184ZM114.177 16.71C114.532 16.71 114.84 16.5997 115.098 16.3774C115.355 16.1567 115.539 15.8513 115.652 15.4628C115.737 15.1653 115.78 14.7784 115.78 14.305C115.78 13.8413 115.737 13.4479 115.652 13.1281C115.539 12.7492 115.355 12.4549 115.098 12.2455C114.84 12.0376 114.521 11.9321 114.144 11.9321C113.779 11.9321 113.468 12.0376 113.21 12.2455C112.953 12.4549 112.768 12.7492 112.657 13.1281C112.57 13.4479 112.528 13.8413 112.528 14.305C112.528 14.7576 112.57 15.1429 112.657 15.4628C112.768 15.8513 112.954 16.1567 113.217 16.3774C113.478 16.5997 113.798 16.71 114.177 16.71Z" fill="#140455"/>
<path d="M123.953 9.94287C124.309 9.94287 124.604 10.01 124.835 10.1412C124.972 10.2051 125.024 10.3202 124.99 10.4865L124.668 12.2327C124.658 12.3319 124.629 12.391 124.578 12.4118C124.529 12.4342 124.451 12.4342 124.339 12.4118C124.159 12.3702 123.995 12.3478 123.85 12.3478C123.773 12.3478 123.645 12.359 123.47 12.3798C123.066 12.415 122.724 12.5621 122.446 12.8212C122.17 13.0818 122.034 13.4272 122.034 13.8573V18.3027C122.034 18.4914 121.939 18.5841 121.75 18.5841H119.959C119.769 18.5841 119.676 18.4914 119.676 18.3027V10.3394C119.676 10.1523 119.769 10.058 119.959 10.058H121.75C121.939 10.058 122.034 10.1523 122.034 10.3394V10.8511C122.034 10.8991 122.043 10.9279 122.066 10.9407C122.087 10.9503 122.114 10.9375 122.149 10.9023C122.596 10.2627 123.196 9.94287 123.953 9.94287Z" fill="#140455"/>
<path d="M73.7429 23.907C74.0214 23.907 74.2678 23.9645 74.4836 24.0797C74.6978 24.1948 74.8636 24.3579 74.9796 24.5658C75.0987 24.7753 75.1599 25.0183 75.1599 25.295C75.1599 25.5636 75.0987 25.8035 74.9796 26.0113C74.8588 26.2208 74.6865 26.3823 74.4643 26.4974C74.2453 26.6094 73.9909 26.6637 73.7042 26.6637H72.635C72.6092 26.6637 72.5964 26.6765 72.5964 26.7021V28.4547C72.5964 28.5282 72.5609 28.5634 72.4933 28.5634H71.9265C71.8572 28.5634 71.8234 28.5282 71.8234 28.4547V24.0093C71.8234 23.9422 71.8572 23.907 71.9265 23.907H73.7429ZM73.6269 26.0369C73.854 26.0369 74.0359 25.9714 74.1744 25.8386C74.3161 25.7075 74.387 25.5316 74.387 25.3141C74.387 25.0935 74.3161 24.9144 74.1744 24.7769C74.0359 24.6409 73.854 24.5722 73.6269 24.5722H72.635C72.6092 24.5722 72.5964 24.585 72.5964 24.6106V25.9985C72.5964 26.0241 72.6092 26.0369 72.635 26.0369H73.6269Z" fill="#F29816"/>
<path d="M76.6084 28.5634C76.5343 28.5634 76.4989 28.5282 76.4989 28.4546V24.0157C76.4989 23.9485 76.5343 23.9133 76.6084 23.9133H77.1688C77.2412 23.9133 77.2783 23.9485 77.2783 24.0157V28.4546C77.2783 28.5282 77.2412 28.5634 77.1688 28.5634H76.6084Z" fill="#F29816"/>
<path d="M80.1542 25.1158C80.4328 25.1158 80.6792 25.1654 80.8949 25.263C81.1139 25.3573 81.2814 25.49 81.3973 25.6595C81.5133 25.8306 81.5713 26.0241 81.5713 26.2416V28.4547C81.5713 28.5282 81.5358 28.5634 81.4682 28.5634H80.9014C80.8321 28.5634 80.7983 28.5282 80.7983 28.4547V28.2884C80.7983 28.2724 80.7935 28.2628 80.7854 28.2628C80.7758 28.2596 80.7629 28.2612 80.7468 28.2692C80.5053 28.4994 80.1864 28.6146 79.7871 28.6146C79.4554 28.6146 79.1832 28.5314 78.9691 28.3651C78.7581 28.1956 78.6534 27.943 78.6534 27.6104C78.6534 27.265 78.7758 26.9963 79.0206 26.8044C79.2653 26.6126 79.6067 26.5166 80.0447 26.5166H80.7597C80.7854 26.5166 80.7983 26.5038 80.7983 26.4782V26.3247C80.7983 26.1504 80.7436 26.0161 80.6373 25.9218C80.5342 25.829 80.3797 25.781 80.1735 25.781C80.019 25.781 79.8901 25.8098 79.7871 25.8642C79.684 25.9202 79.6148 25.9953 79.581 26.0881C79.5632 26.152 79.523 26.1824 79.4586 26.1776L78.8531 26.1073C78.8177 26.1041 78.7919 26.0929 78.7758 26.0753C78.7581 26.0593 78.7517 26.0401 78.7565 26.0177C78.7951 25.7539 78.9433 25.538 79.2009 25.3717C79.4586 25.2022 79.7758 25.1158 80.1542 25.1158ZM79.9996 28.0069C80.2186 28.0069 80.4054 27.9494 80.56 27.8342C80.7178 27.7191 80.7983 27.572 80.7983 27.3929V27.0859C80.7983 27.0603 80.7854 27.0475 80.7597 27.0475H80.1993C79.9626 27.0475 79.7758 27.0923 79.6389 27.1818C79.5004 27.2714 79.4328 27.3977 79.4328 27.5592C79.4328 27.6999 79.486 27.8118 79.5938 27.8918C79.7001 27.9685 79.8354 28.0069 79.9996 28.0069Z" fill="#F29816"/>
<path d="M84.8826 25.6852C84.8826 25.7587 84.8455 25.7939 84.7731 25.7939H84.1289C84.0983 25.7939 84.0839 25.8067 84.0839 25.8323V27.3994C84.0839 27.5753 84.1193 27.7 84.1934 27.7767C84.2706 27.8503 84.3882 27.8855 84.5476 27.8855H84.7215C84.794 27.8855 84.831 27.9222 84.831 27.9942V28.4355C84.831 28.5091 84.794 28.5475 84.7215 28.5507L84.3995 28.5571C84.0468 28.5571 83.7827 28.4979 83.6072 28.378C83.4349 28.2549 83.3464 28.0262 83.3431 27.6936V25.8323C83.3431 25.8067 83.3302 25.7939 83.3045 25.7939H82.9567C82.8826 25.7939 82.8472 25.7587 82.8472 25.6852V25.2758C82.8472 25.2039 82.8826 25.1671 82.9567 25.1671H83.3045C83.3302 25.1671 83.3431 25.1543 83.3431 25.1287V24.3804C83.3431 24.3132 83.3786 24.278 83.4526 24.278H83.9808C84.0484 24.278 84.0839 24.3132 84.0839 24.3804V25.1287C84.0839 25.1543 84.0983 25.1671 84.1289 25.1671H84.7731C84.8455 25.1671 84.8826 25.2039 84.8826 25.2758V25.6852Z" fill="#F29816"/>
<path d="M88.0547 25.1607C88.1223 25.1607 88.1577 25.1975 88.1577 25.2694V25.7363C88.1577 25.8099 88.1223 25.8451 88.0547 25.8451H87.4235C87.3977 25.8451 87.3848 25.8579 87.3848 25.8835V28.4547C87.3848 28.5283 87.3478 28.5635 87.2753 28.5635H86.7149C86.6409 28.5635 86.6054 28.5283 86.6054 28.4547V25.8835C86.6054 25.8579 86.5926 25.8451 86.5668 25.8451H86.1868C86.1127 25.8451 86.0773 25.8099 86.0773 25.7363V25.2694C86.0773 25.1975 86.1127 25.1607 86.1868 25.1607H86.5668C86.5926 25.1607 86.6054 25.1479 86.6054 25.1223V25.0072C86.6054 24.7225 86.6441 24.5003 86.7214 24.342C86.7987 24.1853 86.9227 24.0733 87.095 24.0094C87.2705 23.9422 87.5152 23.9102 87.8292 23.9134H88.0418C88.1094 23.9134 88.1449 23.9486 88.1449 24.0158V24.4315C88.1449 24.5003 88.1094 24.5339 88.0418 24.5339H87.8937C87.7004 24.5339 87.5668 24.5722 87.4943 24.649C87.4202 24.7257 87.3848 24.8633 87.3848 25.0583V25.1223C87.3848 25.1479 87.3977 25.1607 87.4235 25.1607H88.0547Z" fill="#F29816"/>
<path d="M91.0018 28.6146C90.6492 28.6146 90.3448 28.5282 90.0872 28.3523C89.8328 28.1732 89.6589 27.927 89.5655 27.6104C89.4882 27.3977 89.4495 27.1466 89.4495 26.8556C89.4495 26.571 89.4833 26.3183 89.5526 26.1009C89.6556 25.7906 89.8328 25.5492 90.0872 25.3781C90.3448 25.2038 90.6508 25.1158 91.0083 25.1158C91.3464 25.1158 91.6395 25.2038 91.8843 25.3781C92.1322 25.5492 92.3094 25.7858 92.4124 26.0881C92.4929 26.3023 92.5348 26.555 92.5348 26.8492C92.5348 27.1274 92.4962 27.3785 92.4189 27.604C92.3158 27.9206 92.1387 28.1668 91.8907 28.3459C91.6411 28.525 91.3448 28.6146 91.0018 28.6146ZM91.0018 27.9494C91.1645 27.9494 91.3046 27.9046 91.4205 27.815C91.5397 27.7223 91.6266 27.5896 91.6781 27.4185C91.7248 27.2778 91.749 27.0923 91.749 26.862C91.749 26.6445 91.7264 26.459 91.6846 26.3055C91.6331 26.136 91.5445 26.0049 91.4205 25.9154C91.2997 25.8258 91.1564 25.781 90.9889 25.781C90.8166 25.781 90.6701 25.8258 90.551 25.9154C90.4302 26.0049 90.3464 26.136 90.2997 26.3055C90.2514 26.459 90.2289 26.6445 90.2289 26.862C90.2289 27.0795 90.2514 27.265 90.2997 27.4185C90.3464 27.5896 90.4302 27.7223 90.551 27.815C90.6749 27.9046 90.8247 27.9494 91.0018 27.9494Z" fill="#F29816"/>
<path d="M95.5907 25.1287C95.7195 25.1287 95.837 25.1526 95.9449 25.199C95.9965 25.2246 96.0158 25.2694 96.0029 25.3333L95.8934 25.8834C95.8886 25.9218 95.8757 25.9458 95.8548 25.9538C95.837 25.9634 95.8097 25.9634 95.771 25.9538C95.7147 25.9378 95.6438 25.9282 95.5585 25.9282C95.5021 25.9282 95.4586 25.9314 95.4296 25.9346C95.2396 25.9442 95.0834 26.0097 94.9594 26.1329C94.8338 26.2528 94.7727 26.4079 94.7727 26.5998V28.4547C94.7727 28.5282 94.7356 28.5634 94.6632 28.5634H94.1028C94.0287 28.5634 93.9933 28.5282 93.9933 28.4547V25.2758C93.9933 25.2038 94.0287 25.167 94.1028 25.167H94.6632C94.7356 25.167 94.7727 25.2038 94.7727 25.2758V25.5316C94.7727 25.5492 94.7759 25.5604 94.7855 25.5636C94.7936 25.5684 94.8016 25.562 94.8113 25.5444C94.9997 25.2678 95.259 25.1287 95.5907 25.1287Z" fill="#F29816"/>
<path d="M100.902 25.1158C101.245 25.1158 101.514 25.2182 101.707 25.4229C101.9 25.6275 101.997 25.9154 101.997 26.2863V28.4547C101.997 28.5282 101.961 28.5634 101.894 28.5634H101.333C101.264 28.5634 101.23 28.5282 101.23 28.4547V26.4463C101.23 26.2416 101.174 26.0801 101.063 25.9601C100.955 25.8418 100.808 25.781 100.625 25.781C100.444 25.781 100.296 25.8418 100.18 25.9601C100.064 26.0801 100.006 26.24 100.006 26.4399V28.4547C100.006 28.5282 99.9694 28.5634 99.8969 28.5634H99.343C99.2689 28.5634 99.2335 28.5282 99.2335 28.4547V26.4463C99.2335 26.2416 99.1771 26.0801 99.066 25.9601C98.9533 25.8418 98.8052 25.781 98.6216 25.781C98.4541 25.781 98.314 25.8306 98.2029 25.9282C98.095 26.0225 98.0322 26.1552 98.0161 26.3247V28.4547C98.0161 28.5282 97.9791 28.5634 97.9066 28.5634H97.3463C97.2722 28.5634 97.2368 28.5282 97.2368 28.4547V25.2757C97.2368 25.2038 97.2722 25.167 97.3463 25.167H97.9066C97.9791 25.167 98.0161 25.2038 98.0161 25.2757V25.4548C98.0161 25.4724 98.0193 25.4836 98.029 25.4868C98.0419 25.4916 98.0516 25.4852 98.0612 25.4676C98.2544 25.2342 98.5346 25.1158 98.905 25.1158C99.124 25.1158 99.314 25.159 99.4783 25.2438C99.6409 25.3301 99.7681 25.458 99.8583 25.6275C99.8663 25.6403 99.8744 25.6467 99.884 25.6467C99.8969 25.6467 99.905 25.6387 99.9098 25.6211C100.013 25.4516 100.15 25.3253 100.322 25.2438C100.498 25.159 100.691 25.1158 100.902 25.1158Z" fill="#F29816"/>
</svg>
